<?xml version="1.0" encoding="UTF-8"?>
<svg version="1.1" xmlns="http://www.w3.org/2000/svg" width="300" height="118">
<path d="M0 0 C2.17785324 1.83193025 3.17999046 3.53908841 4.43359375 6.09375 C4.84996094 6.91101562 5.26632813 7.72828125 5.6953125 8.5703125 C7.02386181 12.2349355 7.36993161 15.59138638 7.74609375 19.46875 C8.79667969 19.05882813 9.84726563 18.64890625 10.9296875 18.2265625 C29.56871201 11.03566993 29.56871201 11.03566993 39.74609375 11.46875 C39.74609375 12.12875 39.74609375 12.78875 39.74609375 13.46875 C38.77671875 13.6646875 37.80734375 13.860625 36.80859375 14.0625 C29.06437686 15.74695729 22.02453042 17.94970382 14.93359375 21.53125 C14.25876953 21.8715625 13.58394531 22.211875 12.88867188 22.5625 C9.76816713 24.20084468 7.02811349 25.74559633 4.74609375 28.46875 C4.96265625 29.09523438 5.17921875 29.72171875 5.40234375 30.3671875 C5.68078125 31.18445313 5.95921875 32.00171875 6.24609375 32.84375 C6.52453125 33.65585937 6.80296875 34.46796875 7.08984375 35.3046875 C7.74609375 37.46875 7.74609375 37.46875 7.74609375 39.46875 C8.40609375 39.46875 9.06609375 39.46875 9.74609375 39.46875 C9.87886719 38.86546875 10.01164062 38.2621875 10.1484375 37.640625 C10.32503906 36.84140625 10.50164062 36.0421875 10.68359375 35.21875 C10.94462891 34.03539063 10.94462891 34.03539063 11.2109375 32.828125 C11.69364975 30.69996297 12.20772553 28.58342158 12.74609375 26.46875 C13.73609375 26.46875 14.72609375 26.46875 15.74609375 26.46875 C17.06609375 30.42875 18.38609375 34.38875 19.74609375 38.46875 C21.39609375 34.50875 23.04609375 30.54875 24.74609375 26.46875 C26.06609375 26.46875 27.38609375 26.46875 28.74609375 26.46875 C27.25633395 34.96038085 24.06038113 42.5582339 20.74609375 50.46875 C16.88360751 47.12558964 16.20397001 43.25891487 14.74609375 38.46875 C12.76609375 42.42875 10.78609375 46.38875 8.74609375 50.46875 C7.14486818 48.06691164 6.21023814 46.31696846 5.23828125 43.67578125 C4.97402344 42.96357422 4.70976563 42.25136719 4.4375 41.51757812 C4.16808594 40.77958984 3.89867188 40.04160156 3.62109375 39.28125 C3.34394531 38.53166016 3.06679687 37.78207031 2.78125 37.00976562 C2.09938973 35.16404041 1.42227816 33.31656213 0.74609375 31.46875 C-3.51935125 33.16238257 -6.47419695 36.24252828 -9.75390625 39.34375 C-10.32238281 39.87355469 -10.89085938 40.40335938 -11.4765625 40.94921875 C-14.45728149 43.73629475 -17.38911518 46.56182965 -20.25390625 49.46875 C-18.60390625 50.45875 -16.95390625 51.44875 -15.25390625 52.46875 C-14.26390625 51.47875 -14.26390625 51.47875 -13.25390625 50.46875 C-10.87109375 50.2734375 -10.87109375 50.2734375 -8.12890625 50.34375 C-7.21882813 50.36179688 -6.30875 50.37984375 -5.37109375 50.3984375 C-4.67242187 50.42164063 -3.97375 50.44484375 -3.25390625 50.46875 C-2.75890625 52.44875 -2.75890625 52.44875 -2.25390625 54.46875 C-3.57390625 54.79875 -4.89390625 55.12875 -6.25390625 55.46875 C-6.25390625 60.41875 -6.25390625 65.36875 -6.25390625 70.46875 C-7.57390625 70.46875 -8.89390625 70.46875 -10.25390625 70.46875 C-10.25390625 65.18875 -10.25390625 59.90875 -10.25390625 54.46875 C-11.49140625 54.654375 -12.72890625 54.84 -14.00390625 55.03125 C-17.01670202 55.41586223 -19.35401452 55.5562094 -22.25390625 54.46875 C-22.25390625 55.45875 -22.25390625 56.44875 -22.25390625 57.46875 C-21.30515625 57.7575 -20.35640625 58.04625 -19.37890625 58.34375 C-16.25390625 59.46875 -16.25390625 59.46875 -14.25390625 61.46875 C-13.7771636 65.12377698 -13.82070354 66.84301275 -15.94140625 69.90625 C-18.25390625 71.46875 -18.25390625 71.46875 -20.81640625 71.40625 C-23.38072941 70.41997186 -24.63920321 69.67834364 -26.25390625 67.46875 C-26.25390625 66.47875 -26.25390625 65.48875 -26.25390625 64.46875 C-24.27390625 64.96375 -24.27390625 64.96375 -22.25390625 65.46875 C-22.25390625 66.12875 -22.25390625 66.78875 -22.25390625 67.46875 C-20.93390625 67.46875 -19.61390625 67.46875 -18.25390625 67.46875 C-18.25390625 66.14875 -18.25390625 64.82875 -18.25390625 63.46875 C-19.70796875 62.5096875 -19.70796875 62.5096875 -21.19140625 61.53125 C-24.25390625 59.46875 -24.25390625 59.46875 -24.9453125 56.83984375 C-25.09806641 55.66615234 -25.09806641 55.66615234 -25.25390625 54.46875 C-25.66898437 54.84644531 -26.0840625 55.22414062 -26.51171875 55.61328125 C-42.84906557 70.20752203 -65.15479157 88.35199597 -88.31640625 88.84375 C-92.86523441 88.41052827 -94.91112003 87.56694211 -98.25390625 84.46875 C-99.31640625 81.40625 -99.31640625 81.40625 -99.25390625 78.46875 C-97.74675336 76.38744363 -96.54164188 75.61261782 -94.25390625 74.46875 C-91.70775616 74.23702173 -89.179944 74.04980471 -86.62890625 73.90625 C-85.9225 73.86306641 -85.21609375 73.81988281 -84.48828125 73.77539062 C-82.74372088 73.66930249 -80.99883928 73.56852111 -79.25390625 73.46875 C-80.24390625 72.705625 -81.23390625 71.9425 -82.25390625 71.15625 C-83.94140625 69.85546875 -83.94140625 69.85546875 -85.25390625 68.46875 C-85.25390625 67.47875 -85.25390625 66.48875 -85.25390625 65.46875 C-83.67422818 64.79346777 -82.08998722 64.12885306 -80.50390625 63.46875 C-79.6221875 63.0975 -78.74046875 62.72625 -77.83203125 62.34375 C-75.25390625 61.46875 -75.25390625 61.46875 -71.25390625 61.46875 C-68.77890625 65.92375 -68.77890625 65.92375 -66.25390625 70.46875 C-65.59390625 70.13875 -64.93390625 69.80875 -64.25390625 69.46875 C-64.54265625 68.91445312 -64.83140625 68.36015625 -65.12890625 67.7890625 C-65.50015625 67.06460938 -65.87140625 66.34015625 -66.25390625 65.59375 C-66.62515625 64.87445313 -66.99640625 64.15515625 -67.37890625 63.4140625 C-68.25390625 61.46875 -68.25390625 61.46875 -68.25390625 59.46875 C-66.06853258 58.95953672 -63.88048194 58.46180563 -61.69140625 57.96875 C-60.47324219 57.6903125 -59.25507812 57.411875 -58 57.125 C-54.33167918 56.48237446 -50.96888022 56.35400177 -47.25390625 56.46875 C-46.75890625 58.44875 -46.75890625 58.44875 -46.25390625 60.46875 C-45.86203125 59.85 -45.47015625 59.23125 -45.06640625 58.59375 C-42.97673134 56.14378632 -41.27927298 55.44995002 -38.25390625 54.46875 C-39.90390625 54.13875 -41.55390625 53.80875 -43.25390625 53.46875 C-43.25390625 46.53875 -43.25390625 39.60875 -43.25390625 32.46875 C-34.01390625 32.46875 -24.77390625 32.46875 -15.25390625 32.46875 C-14.92390625 33.12875 -14.59390625 33.78875 -14.25390625 34.46875 C-12.27390625 32.81875 -10.29390625 31.16875 -8.25390625 29.46875 C-9.73890625 28.97375 -9.73890625 28.97375 -11.25390625 28.46875 C-12.79421148 25.38813953 -12.8680772 22.04129701 -13.25390625 18.65625 C-13.76728099 14.22438215 -14.29402437 9.83107033 -15.25390625 5.46875 C-13.18025035 4.40794915 -11.09455539 3.37065476 -9.00390625 2.34375 C-7.84375 1.76367188 -6.68359375 1.18359375 -5.48828125 0.5859375 C-2.25390625 -0.53125 -2.25390625 -0.53125 0 0 Z " fill="#424247" transform="translate(103.25390625,26.53125)"/>
<path d="M0 0 C11.79272399 0 18.29549149 0.03203663 26.78515625 7.59765625 C28 9 28 9 28 11 C30.64 11 33.28 11 36 11 C36 12.32 36 13.64 36 15 C34.35 15.33 32.7 15.66 31 16 C31.04640625 16.845625 31.0928125 17.69125 31.140625 18.5625 C31.55031599 31.43850267 31.55031599 31.43850267 27 37 C20.66931233 42.91556061 15.56842068 44.11418824 7.0625 44.75 C6.00772461 44.85248047 6.00772461 44.85248047 4.93164062 44.95703125 C0.3301937 45.29340694 -2.37935012 44.90718849 -6 42 C-6.66 41.01 -7.32 40.02 -8 39 C-8.495 41.475 -8.495 41.475 -9 44 C-9.99 44 -10.98 44 -12 44 C-13.65497356 40.69005287 -13.10084335 37.00877 -13.0625 33.375 C-13.05798828 32.57320312 -13.05347656 31.77140625 -13.04882812 30.9453125 C-13.03703168 28.96350994 -13.01909605 26.98174567 -13 25 C-8.87923993 24.01820817 -6.83864459 24.0806777 -3 26 C-2 27 -2 27 -1.8125 30.375 C-2 34 -2 34 -4 37 C-3.01 38.65 -2.02 40.3 -1 42 C-0.67 28.14 -0.34 14.28 0 0 Z M5 6 C5 16.89 5 27.78 5 39 C14.0499347 39.46905198 14.0499347 39.46905198 21 36 C25.83744551 30.77032918 26.29667856 26.61887214 26.21484375 19.7265625 C25.82090947 14.72717836 24.10072211 11.99333459 20.4375 8.6875 C14.53272878 4.59958147 14.75486555 6 5 6 Z M-9 28 C-9 29.65 -9 31.3 -9 33 C-7.68 32.67 -6.36 32.34 -5 32 C-5.33 30.68 -5.66 29.36 -6 28 C-6.99 28 -7.98 28 -9 28 Z " fill="#2C2C60" transform="translate(181,53)"/>
<path d="M0 0 C7.59 0 15.18 0 23 0 C23.9375 8 23.9375 8 24.22631836 10.46875 C24.79545189 15.31541427 25.38929762 20.15839551 26 25 C24.25197854 25.81674796 22.50149811 26.62823451 20.75 27.4375 C19.77546875 27.88996094 18.8009375 28.34242187 17.796875 28.80859375 C15.50748305 29.78382356 13.42621254 30.4974274 11 31 C3.12859019 22.5455228 0 11.2537473 0 0 Z " fill="#2F2F65" transform="translate(4,59)"/>
<path d="M0 0 C3.61055091 0.76242216 6.85834625 2.12473374 10.25 3.5625 C11.32765625 4.01753906 12.4053125 4.47257812 13.515625 4.94140625 C14.33546875 5.29074219 15.1553125 5.64007813 16 6 C15.7628923 8.60818466 15.52531364 11.21631246 15.28515625 13.82421875 C15.09606135 15.93016606 14.91626944 18.03697077 14.74609375 20.14453125 C14.66488281 21.12808594 14.58367188 22.11164062 14.5 23.125 C14.4278125 24.03507812 14.355625 24.94515625 14.28125 25.8828125 C14 28 14 28 13 29 C11.36527118 29.08700342 9.72685945 29.10701063 8.08984375 29.09765625 C7.10048828 29.09443359 6.11113281 29.09121094 5.09179688 29.08789062 C4.05087891 29.07951172 3.00996094 29.07113281 1.9375 29.0625 C0.89271484 29.05798828 -0.15207031 29.05347656 -1.22851562 29.04882812 C-3.8190666 29.03699913 -6.40950559 29.02051689 -9 29 C-9.36177199 18.36122357 -5.61792125 8.91039148 0 0 Z " fill="#303066" transform="translate(13,26)"/>
<path d="M0 0 C8.58 0 17.16 0 26 0 C26 6.93 26 13.86 26 21 C18.74 21.66 11.48 22.32 4 23 C1.1550584 14.4651752 0.42597201 8.7750234 0 0 Z " fill="#2D2E65" transform="translate(30,59)"/>
<path d="M0 0 C0.51145292 1.99710188 1.00856982 3.99787703 1.5 6 C1.7784375 7.11375 2.056875 8.2275 2.34375 9.375 C3 13 3 13 3 21 C-6.24 21 -15.48 21 -25 21 C-25 15.06 -25 9.12 -25 3 C-21.58380772 2.49656114 -18.167113 1.99711605 -14.75 1.5 C-13.78191406 1.35691406 -12.81382813 1.21382812 -11.81640625 1.06640625 C-10.41455078 0.86337891 -10.41455078 0.86337891 -8.984375 0.65625 C-8.12553711 0.53056641 -7.26669922 0.40488281 -6.38183594 0.27539062 C-4 0 -4 0 0 0 Z " fill="#2F2F65" transform="translate(85,34)"/>
<path d="M0 0 C7 0 7 0 9.5 1.8125 C15.29441517 8.54396581 23 18.94607968 23 28 C21.23426114 28.51770354 19.46194837 29.01298494 17.6875 29.5 C16.70136719 29.7784375 15.71523437 30.056875 14.69921875 30.34375 C11 31 11 31 0 31 C0 20.77 0 10.54 0 0 Z " fill="#2F3066" transform="translate(60,2)"/>
<path d="M0 0 C11.385 1.485 11.385 1.485 23 3 C23 8.94 23 14.88 23 21 C14.42 21 5.84 21 -3 21 C-2.56743716 13.43015031 -2.09394086 7.328793 0 0 Z " fill="#2D2E64" transform="translate(33,34)"/>
<path d="M0 0 C0 10.23 0 20.46 0 31 C-12.375 31 -12.375 31 -16.6875 30 C-17.51636719 29.814375 -18.34523437 29.62875 -19.19921875 29.4375 C-19.79347656 29.293125 -20.38773438 29.14875 -21 29 C-19.96617804 18.47622262 -13.93268786 9.93143925 -7.87109375 1.51171875 C-6 0 -6 0 0 0 Z " fill="#303066" transform="translate(56,2)"/>
<path d="M0 0 C4.9557989 4.14646262 6.93786305 10.86089532 7.55859375 17.0859375 C7.64154848 18.54325039 7.71194057 20.00166511 7.74609375 21.4609375 C1.20819064 26.04702403 -3.19952621 28.35586862 -11.25390625 27.4609375 C-13.28720806 25.42763569 -12.9380742 21.51394696 -13.25390625 18.7109375 C-13.76646721 14.25806412 -14.28770696 9.84334144 -15.25390625 5.4609375 C-13.18025035 4.40013665 -11.09455539 3.36284226 -9.00390625 2.3359375 C-7.84375 1.75585938 -6.68359375 1.17578125 -5.48828125 0.578125 C-2.25390625 -0.5390625 -2.25390625 -0.5390625 0 0 Z " fill="#2E2F65" transform="translate(103.25390625,26.5390625)"/>
<path d="M0 0 C8.58 0 17.16 0 26 0 C24.87435914 5.6282043 24.87435914 5.6282043 21.76171875 8.26171875 C20.77848633 9.10379883 20.77848633 9.10379883 19.77539062 9.96289062 C19.08638672 10.53201172 18.39738281 11.10113281 17.6875 11.6875 C16.67139648 12.55858398 16.67139648 12.55858398 15.63476562 13.44726562 C7.28266308 20.50940511 7.28266308 20.50940511 1 20 C0 19 0 19 -0.11352539 17.14233398 C-0.10828857 16.35157471 -0.10305176 15.56081543 -0.09765625 14.74609375 C-0.09515869 13.9770874 -0.09266113 13.20808105 -0.09008789 12.41577148 C-0.07643188 10.9415271 -0.07643188 10.9415271 -0.0625 9.4375 C-0.041875 6.323125 -0.02125 3.20875 0 0 Z " fill="#262760" transform="translate(61,60)"/>
<path d="M0 0 C1.875 1.375 1.875 1.375 3 3 C3 3.66 3 4.32 3 5 C0.36 5 -2.28 5 -5 5 C-4.67 5.99 -4.34 6.98 -4 8 C-3.030625 8.474375 -2.06125 8.94875 -1.0625 9.4375 C2.2831501 11.14446434 2.50571276 11.79795591 4 15 C5.32303717 15.3721042 6.65737935 15.70630173 8 16 C8.66 16.99 9.32 17.98 10 19 C10.99 19 11.98 19 13 19 C13 17.35 13 15.7 13 14 C12.05125 13.566875 11.1025 13.13375 10.125 12.6875 C7 11 7 11 5 8 C5.1875 4.9375 5.1875 4.9375 6 2 C9.47042703 -0.31361802 10.91834173 -0.51020728 15 0 C16.875 2 16.875 2 18 4 C15.10765685 4.82638376 13.11257569 5 10 5 C11.33926124 9.01778372 13.49134469 9.78023848 17 12 C19 14 19 14 19.375 16.375 C18.87750076 19.85749465 17.77776513 20.89790747 15 23 C12.5625 23.9375 12.5625 23.9375 10 24 C5.40298507 21.80597015 5.40298507 21.80597015 4 19 C3.113125 19.845625 2.22625 20.69125 1.3125 21.5625 C-0.94752039 23.42901095 -1.61815952 23.98181712 -4.625 24.125 C-7.68954872 22.67337166 -9.09022304 20.75856672 -11 18 C-10.67 17.34 -10.34 16.68 -10 16 C-9.01 16 -8.02 16 -7 16 C-6.34 16.99 -5.68 17.98 -5 19 C-4.01 19 -3.02 19 -2 19 C-1.67 17.68 -1.34 16.36 -1 15 C-1.56589844 14.69707031 -2.13179688 14.39414063 -2.71484375 14.08203125 C-8.74092418 10.64006967 -8.74092418 10.64006967 -10.0625 7.375 C-10 5 -10 5 -9 2 C-5.53076119 -0.31282587 -4.07794425 -0.42478586 0 0 Z " fill="#4F4D7A" transform="translate(277,53)"/>
<path d="M0 0 C1.32 0 2.64 0 4 0 C4 6.27 4 12.54 4 19 C5.98 19 7.96 19 10 19 C10.17015625 18.46632813 10.3403125 17.93265625 10.515625 17.3828125 C12.43463324 11.4828829 14.64054239 5.73695531 17 0 C17.99 0 18.98 0 20 0 C21.50585523 3.45581315 23.00368289 6.91504753 24.5 10.375 C24.92925781 11.35984375 25.35851562 12.3446875 25.80078125 13.359375 C26.40986328 14.77089844 26.40986328 14.77089844 27.03125 16.2109375 C27.40830078 17.08024902 27.78535156 17.94956055 28.17382812 18.84521484 C29 21 29 21 29 23 C27.35 22.67 25.7 22.34 24 22 C23.67 20.68 23.34 19.36 23 18 C20.03 18 17.06 18 14 18 C13.01 20.475 13.01 20.475 12 23 C8.04 23 4.08 23 0 23 C0 15.41 0 7.82 0 0 Z M18 7 C17.34 9.31 16.68 11.62 16 14 C17.65 14 19.3 14 21 14 C20.34 11.69 19.68 9.38 19 7 C18.67 7 18.34 7 18 7 Z " fill="#6A6B90" transform="translate(238,53)"/>
<path d="M0 0 C0.66 0.33 1.32 0.66 2 1 C2.8515625 3.72265625 2.8515625 3.72265625 3.625 7.0625 C3.88539062 8.16722656 4.14578125 9.27195312 4.4140625 10.41015625 C4.60742188 11.26480469 4.80078125 12.11945313 5 13 C5.66 13 6.32 13 7 13 C7.13277344 12.39671875 7.26554687 11.7934375 7.40234375 11.171875 C7.57894531 10.37265625 7.75554687 9.5734375 7.9375 8.75 C8.11152344 7.96109375 8.28554687 7.1721875 8.46484375 6.359375 C8.947556 4.23121297 9.46163178 2.11467158 10 0 C10.99 0 11.98 0 13 0 C14.32 3.96 15.64 7.92 17 12 C18.65 8.04 20.3 4.08 22 0 C23.32 0 24.64 0 26 0 C24.5102402 8.49163085 21.31428738 16.0894839 18 24 C14.13751376 20.65683964 13.45787626 16.79016487 12 12 C10.02 15.96 8.04 19.92 6 24 C4.40839113 21.6125867 3.48559154 19.89993396 2.52734375 17.27734375 C2.26759766 16.57416016 2.00785156 15.87097656 1.74023438 15.14648438 C1.47533203 14.41751953 1.21042969 13.68855469 0.9375 12.9375 C-0.84690811 7.89106966 -0.84690811 7.89106966 -3 3 C-2.01 2.01 -1.02 1.02 0 0 Z " fill="#E8666B" transform="translate(106,53)"/>
<path d="M0 0 C2.3125 2.0625 2.3125 2.0625 4 4 C4.53625 3.360625 5.0725 2.72125 5.625 2.0625 C8.57868866 -0.50254541 10.08698963 -1.07826021 14 -1 C18.24197248 1.43520642 18.24197248 1.43520642 20 4 C20.79954025 7.0649043 20.51788295 8.73733741 20 12 C18.07451763 14.78125232 16.69737619 15.73177839 13.5625 16.9375 C10.20627293 17.0193592 8.67857344 15.95463467 6 14 C5.34 13.34 4.68 12.68 4 12 C3.1646875 12.9590625 3.1646875 12.9590625 2.3125 13.9375 C-0.29755872 16.26539021 -1.52249254 16.91518274 -5 17 C-8.48634601 15.37844371 -9.84302194 14.23546708 -12 11 C-12.50326079 7.14166724 -12.31669325 5.49142057 -10.1875 2.1875 C-6.8115215 -1.1884785 -4.41471825 -1.39978871 0 0 Z M-7 3 C-9.35014158 5.837578 -9.35014158 5.837578 -8.6875 9.125 C-8.29355679 11.88086422 -8.29355679 11.88086422 -7 13 C-4.04182893 13.25005386 -4.04182893 13.25005386 -1 13 C1.31563087 11.11499729 1.31563087 11.11499729 1.25 8 C1.31563087 4.88500271 1.31563087 4.88500271 -1 3 C-4 2.58333333 -4 2.58333333 -7 3 Z M9 3 C6.64985842 5.837578 6.64985842 5.837578 7.3125 9.125 C7.70644321 11.88086422 7.70644321 11.88086422 9 13 C11.95817107 13.25005386 11.95817107 13.25005386 15 13 C17.31563087 11.11499729 17.31563087 11.11499729 17.25 8 C17.31563087 4.88500271 17.31563087 4.88500271 15 3 C12 2.58333333 12 2.58333333 9 3 Z " fill="#626263" transform="translate(267,81)"/>
<path d="M0 0 C-0.67095703 0.98226563 -0.67095703 0.98226563 -1.35546875 1.984375 C-5.81394798 8.71487244 -9.14281472 15.45545085 -12 23 C-17.01508715 21.45941767 -21.6147081 19.97068161 -26 17 C-22.31418959 8.45043978 -13.55805096 3.89127858 -5.6015625 -0.06640625 C-3 -1 -3 -1 0 0 Z " fill="#37376B" transform="translate(43,6)"/>
<path d="M0 0 C1.670625 0.2475 1.670625 0.2475 3.375 0.5 C6.72032033 1.0455458 6.72032033 1.0455458 9 1 C9.33 0.67 9.66 0.34 10 0 C11.68608966 -0.07205511 13.37500659 -0.08386068 15.0625 -0.0625 C15.98160156 -0.05347656 16.90070313 -0.04445313 17.84765625 -0.03515625 C18.55792969 -0.02355469 19.26820312 -0.01195313 20 0 C20.33 1.32 20.66 2.64 21 4 C19.68 4.33 18.36 4.66 17 5 C17 9.95 17 14.9 17 20 C15.68 20 14.36 20 13 20 C13 14.72 13 9.44 13 4 C11.7625 4.185625 10.525 4.37125 9.25 4.5625 C6.23720423 4.94711223 3.89989173 5.0874594 1 4 C1 4.99 1 5.98 1 7 C2.423125 7.433125 2.423125 7.433125 3.875 7.875 C7 9 7 9 9 11 C9.47674265 14.65502698 9.43320271 16.37426275 7.3125 19.4375 C5 21 5 21 2.4375 20.9375 C-0.12682316 19.95122186 -1.38529696 19.20959364 -3 17 C-3 16.01 -3 15.02 -3 14 C-1.68 14.33 -0.36 14.66 1 15 C1 15.66 1 16.32 1 17 C2.32 17 3.64 17 5 17 C5 15.68 5 14.36 5 13 C2.11211359 10.76915523 2.11211359 10.76915523 -1 9 C-2 8 -2 8 -2.1875 5.625 C-2 3 -2 3 0 0 Z " fill="#575758" transform="translate(80,77)"/>
<path d="M0 0 C4.29956981 3.36488072 6.6711876 6.47910496 7.375 11.875 C6.88822519 15.93145679 5.6272346 17.88880113 3 21 C-0.25919453 23.19641371 -2.1268428 24.01781953 -6.0625 23.9375 C-9.66285069 22.78845191 -11.4555043 21.82721744 -14 19 C-15.8351441 14.61233728 -16.40003537 11.2471691 -14.9375 6.6875 C-10.90104362 1.08854438 -6.94475519 -1.64481044 0 0 Z M-9.875 5.125 C-12.00087932 8.66813219 -12.30677993 11.77288028 -11.3125 15.75 C-9.75254215 18.42421346 -8.97660378 19.17316562 -6 20 C-2.57091775 19.86003746 -0.70124565 19.63112109 1.875 17.3125 C3.33131969 14.31895397 3.3433901 12.296545 3 9 C1.79255056 5.79523376 1.79255056 5.79523376 -1 4 C-5.63893485 3.56212639 -5.63893485 3.56212639 -9.875 5.125 Z " fill="#535480" transform="translate(147,53)"/>
<path d="M0 0 C8.98942071 1.26337805 17.94853868 8.42835576 24 15 C24 15.66 24 16.32 24 17 C22.42466914 17.86883706 20.83935491 18.71959068 19.25 19.5625 C18.36828125 20.03816406 17.4865625 20.51382812 16.578125 21.00390625 C14 22 14 22 11.82421875 22.00390625 C9.00566339 20.45279548 8.62900246 18.34939786 7.5625 15.375 C5.58592639 10.21872101 3.32479299 6.36972793 0 2 C0 1.34 0 0.68 0 0 Z " fill="#343569" transform="translate(76,6)"/>
<path d="M0 0 C8 0 8 0 11.0625 2.125 C13 5 13 5 13 8.125 C11.99674336 11.00936284 11.17972632 11.99796876 9 14 C9.3609375 14.48210937 9.721875 14.96421875 10.09375 15.4609375 C10.5578125 16.09257813 11.021875 16.72421875 11.5 17.375 C11.9640625 18.00148438 12.428125 18.62796875 12.90625 19.2734375 C14 21 14 21 14 23 C11.75 22.875 11.75 22.875 9 22 C6.6875 18.9375 6.6875 18.9375 5 16 C4.67 18.31 4.34 20.62 4 23 C2.68 23 1.36 23 0 23 C0 15.41 0 7.82 0 0 Z M4 4 C4 6.31 4 8.62 4 11 C5.65 10.34 7.3 9.68 9 9 C9 7.68 9 6.36 9 5 C7.35 4.67 5.7 4.34 4 4 Z " fill="#494977" transform="translate(155,53)"/>
<path d="M0 0 C2.475 0.99 2.475 0.99 5 2 C5 2.99 5 3.98 5 5 C3.35 5 1.7 5 0 5 C1.65 5.99 3.3 6.98 5 8 C5.86625 6.576875 5.86625 6.576875 6.75 5.125 C9.81447964 0.86877828 9.81447964 0.86877828 13 0 C15.75 0.375 15.75 0.375 18 1 C18.33 2.32 18.66 3.64 19 5 C18.236875 4.814375 17.47375 4.62875 16.6875 4.4375 C13.91032625 3.77180827 13.91032625 3.77180827 11 5 C10.20046862 8.28696233 9.90341064 9.71023192 11 13 C13.64 13 16.28 13 19 13 C18.67 14.32 18.34 15.64 18 17 C15.8125 17.6875 15.8125 17.6875 13 18 C10.3125 16.5625 10.3125 16.5625 8 15 C5.84247435 14.77748499 5.84247435 14.77748499 4.1875 16.625 C2 18 2 18 -0.6875 17.4375 C-3 16 -3 16 -3.8125 13.875 C-3.874375 13.25625 -3.93625 12.6375 -4 12 C-3.01 12 -2.02 12 -1 12 C-1 12.66 -1 13.32 -1 14 C0.32 14 1.64 14 3 14 C2.30490919 10.80674569 2.30490919 10.80674569 -0.5 9.5625 C-3 8 -3 8 -4.0625 6.0625 C-4 4 -4 4 -2.0625 1.75 C-1.381875 1.1725 -0.70125 0.595 0 0 Z " fill="#5F5F60" transform="translate(223,80)"/>
<path d="M0 0 C0.99 0.66 1.98 1.32 3 2 C3 2.66 3 3.32 3 4 C5.64 4 8.28 4 11 4 C11 5.32 11 6.64 11 8 C9.35 8.33 7.7 8.66 6 9 C6.04640625 9.845625 6.0928125 10.69125 6.140625 11.5625 C6.37534297 18.93935055 6.10240867 23.78778115 2 30 C1.01 30.66 0.02 31.32 -1 32 C-1 31.01 -1 30.02 -1 29 C-2.32 29.33 -3.64 29.66 -5 30 C-4.360625 29.071875 -3.72125 28.14375 -3.0625 27.1875 C0.55425455 21.59797023 0.54192551 16.494074 0 10 C-0.76217012 7.41659778 -1.7247569 5.39108081 -3 3 C-2.01 3 -1.02 3 0 3 C0 2.01 0 1.02 0 0 Z " fill="#313265" transform="translate(206,60)"/>
<path d="M0 0 C1 1 1 1 1 7 C-5.93 10.465 -5.93 10.465 -13 14 C-15.94678433 11.05321567 -17.32041919 8.75906182 -19 5 C-19 4.34 -19 3.68 -19 3 C-16.77228658 2.49356447 -14.54275924 1.9951038 -12.3125 1.5 C-10.45044922 1.08234375 -10.45044922 1.08234375 -8.55078125 0.65625 C-5.56774329 0.10492945 -3.01394873 -0.22366966 0 0 Z " fill="#303067" transform="translate(54,83)"/>
<path d="M0 0 C2 0 2 0 3.62109375 1.609375 C4.22050781 2.31578125 4.81992188 3.0221875 5.4375 3.75 C6.33275391 4.79414062 6.33275391 4.79414062 7.24609375 5.859375 C8.88667532 7.86168836 10.44684965 9.92913287 12 12 C12.33 8.04 12.66 4.08 13 0 C13.99 0 14.98 0 16 0 C16.33 6.93 16.66 13.86 17 21 C12.93729679 18.9686484 11.18814351 17.24522343 8.25 13.875 C7.45078125 12.96492188 6.6515625 12.05484375 5.828125 11.1171875 C4.92320313 10.06917969 4.92320313 10.06917969 4 9 C3.67 12.96 3.34 16.92 3 21 C2.01 21 1.02 21 0 21 C0 14.07 0 7.14 0 0 Z " fill="#575758" transform="translate(118,77)"/>
<path d="M0 0 C2.1796875 0.234375 2.1796875 0.234375 4.875 0.75 C6.20144531 0.98976563 6.20144531 0.98976563 7.5546875 1.234375 C10.20726141 2.06489335 11.27920866 2.85712776 13 5 C14.7591705 8.51834101 13.9386806 12.27832974 13 16 C11 18.5625 11 18.5625 8 20 C5.73828125 20.14038086 5.73828125 20.14038086 3.3125 20.08984375 C2.50425781 20.07687256 1.69601563 20.06390137 0.86328125 20.05053711 C0.24839844 20.03385986 -0.36648437 20.01718262 -1 20 C-1.02888514 16.85418577 -1.04675923 13.70840531 -1.0625 10.5625 C-1.07087891 9.66466797 -1.07925781 8.76683594 -1.08789062 7.84179688 C-1.09111328 6.98779297 -1.09433594 6.13378906 -1.09765625 5.25390625 C-1.10551147 4.06776733 -1.10551147 4.06776733 -1.11352539 2.85766602 C-1 1 -1 1 0 0 Z M3 4 C3 8.29 3 12.58 3 17 C7.86132495 16.50847518 7.86132495 16.50847518 10 14 C10.35513379 12.09178939 10.35513379 12.09178939 10.3125 10 C10.32925781 9.29875 10.34601563 8.5975 10.36328125 7.875 C10.24339844 7.25625 10.12351563 6.6375 10 6 C7.04622502 3.63019987 7.04622502 3.63019987 3 4 Z " fill="#59595A" transform="translate(137,77)"/>
<path d="M0 0 C0.66 0.33 1.32 0.66 2 1 C2 2.65 2 4.3 2 6 C1.01 5.67 0.02 5.34 -1 5 C-4.54178598 4.74996036 -4.54178598 4.74996036 -8 5 C-10.6224715 7.6224715 -10.64217954 9.35023127 -11 13 C-10.63141012 15.76864953 -10.63141012 15.76864953 -10 18 C-5.6835078 18.76173392 -2.25566547 19.16063604 2 18 C2 19.32 2 20.64 2 22 C-2.07380254 24.03690127 -4.61568793 24.27875769 -9 23 C-12.85198066 20.54873958 -14.97842319 18.49493795 -16 14 C-16.06469219 9.92439193 -16.0635946 7.45398915 -13.6484375 4.15234375 C-9.2281936 -0.11652193 -6.0188148 -0.71409667 0 0 Z " fill="#E76167" transform="translate(234,53)"/>
<path d="M0 0 C0.67408308 1.26691507 1.33900497 2.53870749 2 3.8125 C2.556875 4.87404297 2.556875 4.87404297 3.125 5.95703125 C4 8 4 8 4 11 C-4.82226536 14.92100683 -13.54165757 14.2754857 -23 14 C-23 13.67 -23 13.34 -23 13 C-18.05 12.67 -13.1 12.34 -8 12 C-8.99 11.236875 -9.98 10.47375 -11 9.6875 C-12.6875 8.38671875 -12.6875 8.38671875 -14 7 C-14 6.01 -14 5.02 -14 4 C-12.42032193 3.32471777 -10.83608097 2.66010306 -9.25 2 C-8.36828125 1.62875 -7.4865625 1.2575 -6.578125 0.875 C-4 0 -4 0 0 0 Z " fill="#3E3E6C" transform="translate(32,88)"/>
<path d="M0 0 C7.60344828 0.60344828 7.60344828 0.60344828 10 3 C10.31537716 7.33643601 10.44897847 9.32653229 8 13 C9.98 15.97 9.98 15.97 12 19 C11.67 19.66 11.34 20.32 11 21 C7.73539027 19.19587357 6.11070205 18.16605307 4 15 C3.67 16.65 3.34 18.3 3 20 C2.01 20 1.02 20 0 20 C-1.64838944 16.70322112 -1.14272738 13.05683956 -1.125 9.4375 C-1.12886719 8.64408203 -1.13273438 7.85066406 -1.13671875 7.03320312 C-1.12663067 1.12663067 -1.12663067 1.12663067 0 0 Z M3 4 C3 5.65 3 7.3 3 9 C4.32 8.67 5.64 8.34 7 8 C6.67 6.68 6.34 5.36 6 4 C5.01 4 4.02 4 3 4 Z " fill="#828283" transform="translate(169,77)"/>
<path d="M0 0 C1.875 2 1.875 2 3 4 C0.10765685 4.82638376 -1.88742431 5 -5 5 C-3.66073876 9.01778372 -1.50865531 9.78023848 2 12 C4 14 4 14 4.375 16.375 C3.87750076 19.85749465 2.77776513 20.89790747 0 23 C-2.5 24 -2.5 24 -5 24 C-7.3125 22.0625 -7.3125 22.0625 -9 20 C-8.67 19.01 -8.34 18.02 -8 17 C-7.01 17.66 -6.02 18.32 -5 19 C-4.01 19 -3.02 19 -2 19 C-2 17.35 -2 15.7 -2 14 C-2.94875 13.566875 -3.8975 13.13375 -4.875 12.6875 C-8 11 -8 11 -10 8 C-9.8125 4.9375 -9.8125 4.9375 -9 2 C-5.52957297 -0.31361802 -4.08165827 -0.51020728 0 0 Z " fill="#51507A" transform="translate(292,53)"/>
<path d="M0 0 C0.66 0 1.32 0 2 0 C3.33934716 2.95564708 4.67044247 5.9149378 6 8.875 C6.3815625 9.71675781 6.763125 10.55851562 7.15625 11.42578125 C7.5171875 12.23144531 7.878125 13.03710938 8.25 13.8671875 C8.58515625 14.61081543 8.9203125 15.35444336 9.265625 16.12060547 C10 18 10 18 10 20 C8.68 20 7.36 20 6 20 C5.67 18.68 5.34 17.36 5 16 C2.36 16 -0.28 16 -3 16 C-3.33 17.32 -3.66 18.64 -4 20 C-5.32 20.33 -6.64 20.66 -8 21 C-7.32512263 16.18080529 -5.42034091 12.08116134 -3.4375 7.6875 C-2.9434668 6.57665039 -2.9434668 6.57665039 -2.43945312 5.44335938 C-1.63082877 3.62688438 -0.81602884 1.81316069 0 0 Z M1 8 C0.34 9.32 -0.32 10.64 -1 12 C0.32 11.67 1.64 11.34 3 11 C2.34 10.01 1.68 9.02 1 8 Z " fill="#6A6A6C" transform="translate(158,77)"/>
<path d="M0 0 C0.99 0 1.98 0 3 0 C4.17314026 2.76825188 5.33870215 5.53928486 6.5 8.3125 C6.83386719 9.09818359 7.16773437 9.88386719 7.51171875 10.69335938 C7.98544922 11.8293457 7.98544922 11.8293457 8.46875 12.98828125 C8.90864258 14.03302612 8.90864258 14.03302612 9.35742188 15.09887695 C10 17 10 17 10 20 C8.68 19.67 7.36 19.34 6 19 C6 18.01 6 17.02 6 16 C4.72125 16.103125 3.4425 16.20625 2.125 16.3125 C1.40570313 16.37050781 0.68640625 16.42851563 -0.0546875 16.48828125 C-2.39519216 16.87393036 -2.39519216 16.87393036 -4 20 C-4.99 20 -5.98 20 -7 20 C-6.38082372 16.12311214 -5.19146301 12.97285438 -3.5 9.4375 C-2.0044284 6.30288626 -0.70561439 3.40779675 0 0 Z M1 7 C0.67 8.65 0.34 10.3 0 12 C1.32 11.67 2.64 11.34 4 11 C3.01 9.68 2.02 8.36 1 7 Z " fill="#5D5D5E" transform="translate(107,77)"/>
<path d="M0 0 C0.99 0 1.98 0 3 0 C3.84678051 1.86896555 4.67686211 3.74550181 5.5 5.625 C5.9640625 6.66914062 6.428125 7.71328125 6.90625 8.7890625 C8 12 8 12 8 18 C3.71 18 -0.58 18 -5 18 C-5 17.34 -5 16.68 -5 16 C-4.34 16 -3.68 16 -3 16 C-3.061875 14.845 -3.12375 13.69 -3.1875 12.5 C-3.21274356 7.78786879 -1.84474512 4.30440528 0 0 Z M1 7 C0.34 9.31 -0.32 11.62 -1 14 C0.65 14 2.3 14 4 14 C3.34 11.69 2.68 9.38 2 7 C1.67 7 1.34 7 1 7 Z " fill="#313267" transform="translate(255,53)"/>
<path d="M0 0 C1.32 0 2.64 0 4 0 C4 6.27 4 12.54 4 19 C5.98 19 7.96 19 10 19 C10 20.32 10 21.64 10 23 C6.7 23 3.4 23 0 23 C0 15.41 0 7.82 0 0 Z " fill="#4E4E79" transform="translate(170,53)"/>
<path d="M0 0 C0.99 0 1.98 0 3 0 C3 1.98 3 3.96 3 6 C4.65 6 6.3 6 8 6 C8 4.02 8 2.04 8 0 C8.99 0 9.98 0 11 0 C11 5.28 11 10.56 11 16 C10.01 16 9.02 16 8 16 C8 13.69 8 11.38 8 9 C6.35 9 4.7 9 3 9 C3 11.31 3 13.62 3 16 C2.01 16 1.02 16 0 16 C0 10.72 0 5.44 0 0 Z " fill="#646465" transform="translate(243,81)"/>
<path d="M0 0 C0.33 0.99 0.66 1.98 1 3 C-0.98 3.66 -2.96 4.32 -5 5 C-6.01540112 9.10223585 -6.01540112 9.10223585 -5 13 C-1.65747276 13.07427838 0.8035914 13.06546953 4 12 C4 10.02 4 8.04 4 6 C4.66 6.33 5.32 6.66 6 7 C5.3956044 13.40659341 5.3956044 13.40659341 3.75 15.875 C1.4016813 17.38463345 -0.19924148 17.86663055 -3 18 C-6.48634601 16.37844371 -7.84302194 15.23546708 -10 12 C-10.50326079 8.14166724 -10.31669325 6.49142057 -8.1875 3.1875 C-5.43736579 0.43736579 -3.86388114 0 0 0 Z " fill="#555557" transform="translate(265,80)"/>
<path d="M0 0 C2.31 0.33 4.62 0.66 7 1 C6.67 1.66 6.34 2.32 6 3 C5.34 3 4.68 3 4 3 C4.08378906 3.71027344 4.16757813 4.42054687 4.25390625 5.15234375 C4.35574219 6.07144531 4.45757812 6.99054687 4.5625 7.9375 C4.66691406 8.85402344 4.77132812 9.77054688 4.87890625 10.71484375 C4.91886719 11.46894531 4.95882812 12.22304687 5 13 C4.67 13.33 4.34 13.66 4 14 C3.92820036 15.51928038 3.91607993 17.04167482 3.9375 18.5625 C3.94652344 19.38878906 3.95554688 20.21507813 3.96484375 21.06640625 C3.97644531 21.70449219 3.98804688 22.34257813 4 23 C2.68 23 1.36 23 0 23 C0 15.41 0 7.82 0 0 Z " fill="#403F6F" transform="translate(155,53)"/>
<path d="M0 0 C0.99 0 1.98 0 3 0 C3 6.93 3 13.86 3 21 C5.64 21 8.28 21 11 21 C11.33 20.34 11.66 19.68 12 19 C12 20.32 12 21.64 12 23 C8.04 23 4.08 23 0 23 C0 15.41 0 7.82 0 0 Z " fill="#3D3E6F" transform="translate(238,53)"/>
<path d="M0 0 C0 0.66 0 1.32 0 2 C-1.05058594 2.25394531 -2.10117188 2.50789063 -3.18359375 2.76953125 C-10.56859029 4.5735804 -17.83240636 6.44014513 -25 9 C-25.66 8.01 -26.32 7.02 -27 6 C-18.02781738 2.54529043 -9.69656924 -0.41261997 0 0 Z " fill="#505051" transform="translate(143,38)"/>
<path d="M0 0 C0.99 0.66 1.98 1.32 3 2 C3 2.66 3 3.32 3 4 C5.64 4 8.28 4 11 4 C11 5.32 11 6.64 11 8 C8.69 8 6.38 8 4 8 C3.34 9.98 2.68 11.96 2 14 C0.13448574 10.41247258 -1.42535928 6.72187807 -3 3 C-2.01 3 -1.02 3 0 3 C0 2.01 0 1.02 0 0 Z " fill="#464675" transform="translate(206,60)"/>
<path d="M0 0 C0.99 0 1.98 0 3 0 C3 4.29 3 8.58 3 13 C4.65 13 6.3 13 8 13 C8 13.99 8 14.98 8 16 C5.36 16 2.72 16 0 16 C0 10.72 0 5.44 0 0 Z " fill="#484849" transform="translate(288,81)"/>
<path d="M0 0 C2.31 0 4.62 0 7 0 C5.02 0.99 5.02 0.99 3 2 C3.01160156 2.84304687 3.02320313 3.68609375 3.03515625 4.5546875 C3.04869141 6.19824219 3.04869141 6.19824219 3.0625 7.875 C3.07410156 8.96554688 3.08570313 10.05609375 3.09765625 11.1796875 C3 14 3 14 2 16 C4.64 15.34 7.28 14.68 10 14 C10 14.99 10 15.98 10 17 C6.7 17 3.4 17 0 17 C0 11.39 0 5.78 0 0 Z " fill="#3B3B3C" transform="translate(137,79)"/>
<path d="M0 0 C0.99 0.515625 1.98 1.03125 3 1.5625 C7.31493291 3.45083465 10.44341772 2.87934044 15 2 C15 3.32 15 4.64 15 6 C10.92911778 8.03544111 8.38952651 8.21412435 4 7 C1.625 5.6875 1.625 5.6875 0 4 C0 2.68 0 1.36 0 0 Z " fill="#EA434A" transform="translate(221,69)"/>
<path d="M0 0 C0.66 0.33 1.32 0.66 2 1 C2.8515625 3.72265625 2.8515625 3.72265625 3.625 7.0625 C3.88539062 8.16722656 4.14578125 9.27195312 4.4140625 10.41015625 C4.60742188 11.26480469 4.80078125 12.11945313 5 13 C5.66 13 6.32 13 7 13 C7 13.66 7 14.32 7 15 C5.35 15.33 3.7 15.66 2 16 C0.35 11.71 -1.3 7.42 -3 3 C-2.01 2.01 -1.02 1.02 0 0 Z " fill="#E36267" transform="translate(106,53)"/>
<path d="M0 0 C7 1 7 1 8 2 C8.04092937 4.33297433 8.04241723 6.66705225 8 9 C7.67 9 7.34 9 7 9 C7 7.35 7 5.7 7 4 C5.35 4 3.7 4 2 4 C2.27034634 6.43717258 2.27034634 6.43717258 3 9 C3.99 9.66 4.98 10.32 6 11 C4.35 11.33 2.7 11.66 1 12 C1 14.31 1 16.62 1 19 C0.67 19 0.34 19 0 19 C0 12.73 0 6.46 0 0 Z " fill="#434345" transform="translate(170,77)"/>
<path d="M0 0 C0.99 0.495 1.98 0.99 3 1.5 C7.13477234 3.30103581 10.53198453 3.23515871 15 3 C15 3.99 15 4.98 15 6 C10.92911778 8.03544111 8.38952651 8.21412435 4 7 C1.625 5.6875 1.625 5.6875 0 4 C0 2.68 0 1.36 0 0 Z " fill="#3B3B6E" transform="translate(134,69)"/>
<path d="M0 0 C0.99 0 1.98 0 3 0 C3.72960862 1.5526795 4.43292641 3.11773043 5.125 4.6875 C5.51945312 5.55761719 5.91390625 6.42773438 6.3203125 7.32421875 C7.15356957 10.60456985 6.52307559 12.04438128 5 15 C3 12 3 12 2 9 C1.01 9.495 1.01 9.495 0 10 C0 9.01 0 8.02 0 7 C-0.66 7 -1.32 7 -2 7 C-1.34 4.69 -0.68 2.38 0 0 Z " fill="#54547E" transform="translate(255,53)"/>
<path d="M0 0 C0.99 0.33 1.98 0.66 3 1 C3.94921875 3.06640625 3.94921875 3.06640625 4.6875 5.5625 C5.06455078 6.80193359 5.06455078 6.80193359 5.44921875 8.06640625 C5.63097656 8.70449219 5.81273437 9.34257813 6 10 C4.68 10 3.36 10 2 10 C1.67 8.68 1.34 7.36 1 6 C-1.64 5.67 -4.28 5.34 -7 5 C-6.67 3.68 -6.34 2.36 -6 1 C-4.35 1.33 -2.7 1.66 -1 2 C-0.67 1.34 -0.34 0.68 0 0 Z " fill="#616163" transform="translate(162,87)"/>
<path d="M0 0 C0.33 0 0.66 0 1 0 C1.33 1.65 1.66 3.3 2 5 C2.66 5 3.32 5 4 5 C3.58578031 9.83256305 1.53586014 11.82679218 -2 15 C-2 14.01 -2 13.02 -2 12 C-3.32 12.33 -4.64 12.66 -6 13 C-5.071875 11.7315625 -5.071875 11.7315625 -4.125 10.4375 C-1.86952264 7.08627655 -0.93874355 3.91143146 0 0 Z " fill="#494A76" transform="translate(207,77)"/>
<path d="M0 0 C0.99 0 1.98 0 3 0 C3.50066883 2.45959639 3.99558974 4.92004572 4.48046875 7.3828125 C4.88595098 9.42546736 5.31365323 11.46371509 5.75 13.5 C5.8325 14.325 5.915 15.15 6 16 C5.34 16.66 4.68 17.32 4 18 C3.34 15.36 2.68 12.72 2 10 C1.01 10.33 0.02 10.66 -1 11 C-0.67 7.37 -0.34 3.74 0 0 Z " fill="#E84C53" transform="translate(116,53)"/>
<path d="M0 0 C0.33 0 0.66 0 1 0 C1.36421725 7.4057508 1.36421725 7.4057508 -0.1875 9.9375 C-2.57683786 11.33814633 -4.21671973 11.86746284 -7 12 C-9.8125 10.5625 -9.8125 10.5625 -12 9 C-11.67 8.01 -11.34 7.02 -11 6 C-10.34 6.33 -9.68 6.66 -9 7 C-5.62177584 7.14375422 -3.22609045 7.07536348 0 6 C0 4.02 0 2.04 0 0 Z " fill="#434345" transform="translate(285,86)"/>
<path d="M0 0 C0.99 0 1.98 0 3 0 C5.21538462 6.4 5.21538462 6.4 4.125 9.4375 C3.75375 9.953125 3.3825 10.46875 3 11 C2.34 10.67 1.68 10.34 1 10 C0.67 10.99 0.34 11.98 0 13 C-0.66 12.67 -1.32 12.34 -2 12 C-1.67 11.34 -1.34 10.68 -1 10 C-1.66 10 -2.32 10 -3 10 C-2.01 6.7 -1.02 3.4 0 0 Z " fill="#616163" transform="translate(107,77)"/>
<path d="M0 0 C0.66 0 1.32 0 2 0 C3.38938077 1.96147874 4.7260411 3.96166576 6 6 C4.68 6 3.36 6 2 6 C2 10.62 2 15.24 2 20 C1.34 20 0.68 20 0 20 C0 13.4 0 6.8 0 0 Z " fill="#424244" transform="translate(118,77)"/>
<path d="M0 0 C2.31 0.33 4.62 0.66 7 1 C7 1.99 7 2.98 7 4 C5.02 4 3.04 4 1 4 C1 4.99 1 5.98 1 7 C1.66 7 2.32 7 3 7 C3.33 7.99 3.66 8.98 4 10 C-0.875 9.125 -0.875 9.125 -2 8 C-2.29386153 4.27775401 -2.14809171 3.22213757 0 0 Z " fill="#515153" transform="translate(80,77)"/>
<path d="M0 0 C2 2 2 2 2.08203125 4.09375 C1.99308594 4.8878125 1.90414062 5.681875 1.8125 6.5 C1.73644531 7.2940625 1.66039062 8.088125 1.58203125 8.90625 C1 11 1 11 -2 13 C-4.66666667 13 -7.33333333 13 -10 13 C-9.67 12.34 -9.34 11.68 -9 11 C-7.34178227 10.62690101 -5.67422986 10.29299023 -4 10 C-2.62137726 8.82543499 -2.62137726 8.82543499 -2.5625 5.5625 C-2 2 -2 2 0 0 Z " fill="#666667" transform="translate(149,82)"/>
<path d="M0 0 C0.33 1.32 0.66 2.64 1 4 C0.236875 3.814375 -0.52625 3.62875 -1.3125 3.4375 C-4.08967375 2.77180827 -4.08967375 2.77180827 -7 4 C-7.33 6.31 -7.66 8.62 -8 11 C-8.66 10.67 -9.32 10.34 -10 10 C-10 7.33333333 -10 4.66666667 -10 2 C-6.42454167 -0.86036666 -4.36137826 -1.37071888 0 0 Z " fill="#6C6C6D" transform="translate(241,81)"/>
<path d="M0 0 C0.66 0 1.32 0 2 0 C2.33 6.27 2.66 12.54 3 19 C-1 17 -1 17 -2.25 14.375 C-2.4975 13.59125 -2.745 12.8075 -3 12 C-2.01 12 -1.02 12 0 12 C0 8.04 0 4.08 0 0 Z " fill="#3B3B3D" transform="translate(132,79)"/>
<path d="M0 0 C3.46518731 1.54008325 6.27562776 3.34925944 9 6 C9.8125 9.25 9.8125 9.25 10 12 C9.01 12.33 8.02 12.66 7 13 C6.34 12.67 5.68 12.34 5 12 C5 10.02 5 8.04 5 6 C4.67 7.65 4.34 9.3 4 11 C3.67 11 3.34 11 3 11 C2.71125 9.88625 2.4225 8.7725 2.125 7.625 C1.30758671 3.99708908 1.30758671 3.99708908 -1 2 C-0.67 1.34 -0.34 0.68 0 0 Z " fill="#6B6B6C" transform="translate(265,81)"/>
<path d="M0 0 C0.33 0 0.66 0 1 0 C1 2.31 1 4.62 1 7 C-0.98 7.66 -2.96 8.32 -5 9 C-6.32 7.68 -7.64 6.36 -9 5 C-8.67 4.01 -8.34 3.02 -8 2 C-6.515 2.99 -6.515 2.99 -5 4 C-2.37468476 4.16713569 -2.37468476 4.16713569 0 4 C0 2.68 0 1.36 0 0 Z " fill="#373769" transform="translate(292,68)"/>
<path d="M0 0 C7.75 -0.125 7.75 -0.125 10 1 C10 2.65 10 4.3 10 6 C6.37 5.01 2.74 4.02 -1 3 C-0.67 2.01 -0.34 1.02 0 0 Z " fill="#E83F46" transform="translate(226,53)"/>
<path d="M0 0 C2.15377564 2.62198774 3.40072174 4.64404172 4 8 C2.35 7.67 0.7 7.34 -1 7 C-1.33 5.68 -1.66 4.36 -2 3 C-4.97 3 -7.94 3 -11 3 C-11.33 3.66 -11.66 4.32 -12 5 C-12 4.01 -12 3.02 -12 2 C-8.37 2 -4.74 2 -1 2 C-0.67 1.34 -0.34 0.68 0 0 Z " fill="#62618A" transform="translate(263,68)"/>
<path d="M0 0 C0.66 0.33 1.32 0.66 2 1 C3.08123911 4.61682096 3.68974964 8.40029896 2.16796875 11.9296875 C1.0625 13.5625 1.0625 13.5625 -1 16 C-1.33 15.34 -1.66 14.68 -2 14 C-2.66 13.67 -3.32 13.34 -4 13 C-3.34 12.01 -2.68 11.02 -2 10 C-1.60986284 8.0103005 -1.26797351 6.00980131 -1 4 C-0.67 4 -0.34 4 0 4 C0.33 5.65 0.66 7.3 1 9 C0.67 6.03 0.34 3.06 0 0 Z " fill="#55557D" transform="translate(151,58)"/>
<path d="M0 0 C2.98828314 0.32305764 4.61321245 0.65189121 6.875 2.6875 C8.38380949 5.78894173 7.81980367 7.72078533 7 11 C5.68 10.34 4.36 9.68 3 9 C3.33 7.68 3.66 6.36 4 5 C2.35 4.67 0.7 4.34 -1 4 C-0.34 3.34 0.32 2.68 1 2 C0.67 1.34 0.34 0.68 0 0 Z " fill="#53537D" transform="translate(160,53)"/>
<path d="M0 0 C0.33 0.99 0.66 1.98 1 3 C0.030625 3.28875 -0.93875 3.5775 -1.9375 3.875 C-5.10664203 4.64214682 -5.10664203 4.64214682 -6 7 C-6.66 7 -7.32 7 -8 7 C-8.33 8.32 -8.66 9.64 -9 11 C-9.36658354 4.52369077 -9.36658354 4.52369077 -7.6875 2.125 C-5.08162401 0.38774934 -3.11698611 0 0 0 Z " fill="#4D4D4E" transform="translate(265,80)"/>
<path d="M0 0 C0.99 0 1.98 0 3 0 C3 0.66 3 1.32 3 2 C2.34 2 1.68 2 1 2 C1 5.96 1 9.92 1 14 C0.01 14.495 0.01 14.495 -1 15 C-1 15.99 -1 16.98 -1 18 C-2.65 15.69 -4.3 13.38 -6 11 C-4.68 10.67 -3.36 10.34 -2 10 C-1.67 10.66 -1.34 11.32 -1 12 C-0.67 8.04 -0.34 4.08 0 0 Z " fill="#666668" transform="translate(131,77)"/>
<path d="M0 0 C2.26274788 0.35355436 3.95088852 0.97544426 6 2 C5.34 4.97 4.68 7.94 4 11 C3.34 10.67 2.68 10.34 2 10 C2.33 8.68 2.66 7.36 3 6 C1.35 4.68 -0.3 3.36 -2 2 C-1.34 1.34 -0.68 0.68 0 0 Z " fill="#42426F" transform="translate(273,62)"/>
<path d="M0 0 C-1 3 -1 3 -2.84765625 4.16796875 C-3.57855469 4.50441406 -4.30945313 4.84085938 -5.0625 5.1875 C-5.79597656 5.53167969 -6.52945313 5.87585937 -7.28515625 6.23046875 C-8.13400391 6.61138672 -8.13400391 6.61138672 -9 7 C-8.67 5.02 -8.34 3.04 -8 1 C-5.07175348 0.02391783 -3.04386724 -0.08226668 0 0 Z " fill="#4D4D50" transform="translate(119,45)"/>
<path d="M0 0 C4.875 1.875 4.875 1.875 6 3 C6.04080783 4.99958364 6.04254356 7.00045254 6 9 C5.01 9 4.02 9 3 9 C2.9175 8.401875 2.835 7.80375 2.75 7.1875 C1.79544128 4.4033704 0.42867729 3.56688858 -2 2 C-1.34 1.34 -0.68 0.68 0 0 Z " fill="#656566" transform="translate(83,85)"/>
<path d="M0 0 C0.66 0.66 1.32 1.32 2 2 C0.7934375 2.433125 0.7934375 2.433125 -0.4375 2.875 C-3.1326468 3.73262568 -3.1326468 3.73262568 -4 6 C-4.66 6 -5.32 6 -6 6 C-6.33 7.32 -6.66 8.64 -7 10 C-7.125 6.625 -7.125 6.625 -7 3 C-4.6226839 0.6226839 -3.29714793 0.32971479 0 0 Z " fill="#4D4D4F" transform="translate(279,81)"/>
<path d="M0 0 C1.32 0.66 2.64 1.32 4 2 C4.1875 4.375 4.1875 4.375 4 7 C3.01 7.66 2.02 8.32 1 9 C0.34 8.34 -0.32 7.68 -1 7 C-0.625 3.375 -0.625 3.375 0 0 Z " fill="#52527A" transform="translate(292,65)"/>
<path d="M0 0 C2.64 0 5.28 0 8 0 C8 1.32 8 2.64 8 4 C5.69 4 3.38 4 1 4 C0.67 2.68 0.34 1.36 0 0 Z " fill="#5D5D89" transform="translate(209,64)"/>
<path d="M0 0 C1.32 0 2.64 0 4 0 C3.34 2.97 2.68 5.94 2 9 C1.01 9 0.02 9 -1 9 C-0.67 6.03 -0.34 3.06 0 0 Z " fill="#E84F56" transform="translate(128,53)"/>
<path d="M0 0 C2.8125 -0.25 2.8125 -0.25 6 0 C7.875 2 7.875 2 9 4 C6.21176345 5.0326802 5.1322726 5.04509293 2.25 4.0625 C1.5075 3.711875 0.765 3.36125 0 3 C0 2.01 0 1.02 0 0 Z " fill="#3C3C73" transform="translate(286,53)"/>
<path d="M0 0 C1 3 1 3 0.22265625 5.04296875 C-0.16019531 5.75066406 -0.54304688 6.45835938 -0.9375 7.1875 C-1.31777344 7.90292969 -1.69804688 8.61835937 -2.08984375 9.35546875 C-2.54037109 10.16951172 -2.54037109 10.16951172 -3 11 C-4.9451 8.08235 -5.45276317 6.37462715 -6 3 C-5.67 3.66 -5.34 4.32 -5 5 C-3.68 4.67 -2.36 4.34 -1 4 C-0.67 2.68 -0.34 1.36 0 0 Z " fill="#E86D73" transform="translate(115,66)"/>
<path d="M0 0 C1.31471568 0.28151087 2.62675767 0.57553339 3.9375 0.875 C4.66839844 1.03742187 5.39929688 1.19984375 6.15234375 1.3671875 C8 2 8 2 9 4 C8.67 4.66 8.34 5.32 8 6 C5.69 5.34 3.38 4.68 1 4 C0.67 2.68 0.34 1.36 0 0 Z " fill="#323264" transform="translate(284,61)"/>
<path d="M0 0 C5.5 -0.36666667 5.5 -0.36666667 7.875 1.375 C9 3 9 3 9 5 C7.72125 4.95875 6.4425 4.9175 5.125 4.875 C2.98128508 4.75787127 2.98128508 4.75787127 1 5 C0.34 5.66 -0.32 6.32 -1 7 C-0.67 5.68 -0.34 4.36 0 3 C1.65 3 3.3 3 5 3 C5 2.34 5 1.68 5 1 C3.35 1 1.7 1 0 1 C0 0.67 0 0.34 0 0 Z " fill="#5B5B83" transform="translate(271,53)"/>
<path d="M0 0 C0.66 0.33 1.32 0.66 2 1 C1.67 2.32 1.34 3.64 1 5 C-1.64 5 -4.28 5 -7 5 C-6.67 3.68 -6.34 2.36 -6 1 C-4.35 1.33 -2.7 1.66 -1 2 C-0.67 1.34 -0.34 0.68 0 0 Z " fill="#3F3F41" transform="translate(162,87)"/>
<path d="M0 0 C1.32 0 2.64 0 4 0 C4 0.99 4 1.98 4 3 C1.09399739 4.25664978 -0.79604584 5 -4 5 C-4.33 4.01 -4.66 3.02 -5 2 C-3.35 2 -1.7 2 0 2 C0 1.34 0 0.68 0 0 Z " fill="#353567" transform="translate(145,72)"/>
<path d="M0 0 C0.99 0.33 1.98 0.66 3 1 C4.8380113 5.04362487 5.25455926 7.73449853 4 12 C3.67 12 3.34 12 3 12 C3 10.02 3 8.04 3 6 C2.34 6 1.68 6 1 6 C0.67 4.02 0.34 2.04 0 0 Z " fill="#303063" transform="translate(148,56)"/>
<path d="M0 0 C2.64 0 5.28 0 8 0 C8 0.99 8 1.98 8 3 C5.03 3 2.06 3 -1 3 C-0.67 2.01 -0.34 1.02 0 0 Z " fill="#343470" transform="translate(139,53)"/>
<path d="M0 0 C4.62 0.66 9.24 1.32 14 2 C14 2.33 14 2.66 14 3 C9.38 3 4.76 3 0 3 C-0.33 3.99 -0.66 4.98 -1 6 C-0.67 4.02 -0.34 2.04 0 0 Z " fill="#4D4E80" transform="translate(33,34)"/>
<path d="M0 0 C0.33 0 0.66 0 1 0 C1 2.97 1 5.94 1 9 C-0.32 9.33 -1.64 9.66 -3 10 C-2.39009109 6.44219804 -1.4216319 3.3171411 0 0 Z " fill="#646465" transform="translate(103,87)"/>
<path d="M0 0 C0.25 3.3125 0.25 3.3125 0 7 C-2 8.9375 -2 8.9375 -4 10 C-4 9.34 -4 8.68 -4 8 C-4.66 7.34 -5.32 6.68 -6 6 C-5.34 5.67 -4.68 5.34 -4 5 C-4 3.68 -4 2.36 -4 1 C-1 0 -1 0 0 0 Z " fill="#757576" transform="translate(179,80)"/>
<path d="M0 0 C0.99 0 1.98 0 3 0 C2.67 1.98 2.34 3.96 2 6 C1.67 6 1.34 6 1 6 C0.67 7.65 0.34 9.3 0 11 C-0.33 11 -0.66 11 -1 11 C-1.02688151 9.35425434 -1.04634123 7.70838587 -1.0625 6.0625 C-1.07410156 5.14597656 -1.08570313 4.22945312 -1.09765625 3.28515625 C-1 1 -1 1 0 0 Z " fill="#3A3A6C" transform="translate(134,57)"/>
<path d="M0 0 C1.65 0.33 3.3 0.66 5 1 C5.33 2.32 5.66 3.64 6 5 C3.36 4.34 0.72 3.68 -2 3 C-1.34 2.01 -0.68 1.02 0 0 Z " fill="#5A5A5B" transform="translate(236,80)"/>
<path d="M0 0 C0.99 0 1.98 0 3 0 C5.21538462 6.4 5.21538462 6.4 4.125 9.4375 C3.75375 9.953125 3.3825 10.46875 3 11 C1.72746564 7.35206816 0.67170806 3.8063457 0 0 Z " fill="#868889" transform="translate(107,77)"/>
<path d="M0 0 C0 1.32 0 2.64 0 4 C-3.3 4 -6.6 4 -10 4 C-10 3.67 -10 3.34 -10 3 C-8.35 3 -6.7 3 -5 3 C-5 2.34 -5 1.68 -5 1 C-3 0 -3 0 0 0 Z " fill="#E4373C" transform="translate(236,71)"/>
<path d="M0 0 C0.66 0.33 1.32 0.66 2 1 C1.34 2.32 0.68 3.64 0 5 C-2.31 5 -4.62 5 -7 5 C-2.25 1.125 -2.25 1.125 0 0 Z " fill="#3A3B40" transform="translate(109,48)"/>
<path d="M0 0 C0.66 0 1.32 0 2 0 C2.33 0.66 2.66 1.32 3 2 C5.52733235 2.65555119 5.52733235 2.65555119 8 3 C8 3.66 8 4.32 8 5 C5.36 5 2.72 5 0 5 C0 3.35 0 1.7 0 0 Z " fill="#3E3E3F" transform="translate(104,87)"/>
<path d="M0 0 C1.16191874 2.32383747 1.51446385 4.45093524 2 7 C2.32483418 8.33542939 2.6550855 9.66961551 3 11 C1.68 10.34 0.36 9.68 -1 9 C-1.09765625 2.84765625 -1.09765625 2.84765625 -1 1 C-0.67 0.67 -0.34 0.34 0 0 Z " fill="#48484B" transform="translate(231,85)"/>
<path d="M0 0 C0 0.66 0 1.32 0 2 C-7.625 3.25 -7.625 3.25 -11 1 C-7.32589215 -0.17571451 -3.83070817 -0.07366746 0 0 Z " fill="#6F6F70" transform="translate(143,38)"/>
<path d="M0 0 C2.625 0.9375 2.625 0.9375 5 2 C5 2.99 5 3.98 5 5 C2.03 4.505 2.03 4.505 -1 4 C-1.33 3.01 -1.66 2.02 -2 1 C-1.34 0.67 -0.68 0.34 0 0 Z " fill="#646465" transform="translate(223,80)"/>
<path d="M0 0 C0 0.66 0 1.32 0 2 C-1.98 2.66 -3.96 3.32 -6 4 C-6.66 3.01 -7.32 2.02 -8 1 C-3.375 -1.125 -3.375 -1.125 0 0 Z " fill="#575759" transform="translate(124,43)"/>
<path d="M0 0 C4.75 0.75 4.75 0.75 7 3 C6.34 3 5.68 3 5 3 C4.67 3.99 4.34 4.98 4 6 C2.62437146 4.71034824 1.29233607 3.37310707 0 2 C0 1.34 0 0.68 0 0 Z " fill="#5B5B84" transform="translate(76,6)"/>
<path d="M0 0 C1.10844919 3.32534757 0.84454356 5.62182575 0 9 C-0.99 8.67 -1.98 8.34 -3 8 C-3 6.68 -3 5.36 -3 4 C-2.34 4 -1.68 4 -1 4 C-0.67 2.68 -0.34 1.36 0 0 Z " fill="#EA282E" transform="translate(221,59)"/>
<path d="M0 0 C0.99 0 1.98 0 3 0 C3 0.99 3 1.98 3 3 C4.32 3.33 5.64 3.66 7 4 C4.625 4.625 4.625 4.625 2 5 C1.34 4.34 0.68 3.68 0 3 C0 2.01 0 1.02 0 0 Z " fill="#585859" transform="translate(219,92)"/>
<path d="M0 0 C0.93972656 0.12568359 0.93972656 0.12568359 1.8984375 0.25390625 C3.12433594 0.40666016 3.12433594 0.40666016 4.375 0.5625 C5.59316406 0.71912109 5.59316406 0.71912109 6.8359375 0.87890625 C9.04899186 1.18237328 9.04899186 1.18237328 11 0 C10.67 0.99 10.34 1.98 10 3 C5.545 3.495 5.545 3.495 1 4 C0.67 2.68 0.34 1.36 0 0 Z " fill="#5C5C5E" transform="translate(273,92)"/>
<path d="M0 0 C1.37562854 1.28965176 2.70766393 2.62689293 4 4 C4 4.66 4 5.32 4 6 C2.02 6.33 0.04 6.66 -2 7 C-1.01 6.67 -0.02 6.34 1 6 C0.67 4.02 0.34 2.04 0 0 Z " fill="#545456" transform="translate(110,83)"/>
<path d="M0 0 C1.4540625 0.0309375 1.4540625 0.0309375 2.9375 0.0625 C2.9375 0.7225 2.9375 1.3825 2.9375 2.0625 C2.15375 2.165625 1.37 2.26875 0.5625 2.375 C-2.39295181 2.83845022 -2.39295181 2.83845022 -4.0625 6.0625 C-4.105221 4.39638095 -4.10313832 2.72867115 -4.0625 1.0625 C-3.0625 0.0625 -3.0625 0.0625 0 0 Z " fill="#27285F" transform="translate(273.0625,53.9375)"/>
<path d="M0 0 C0.33 0.99 0.66 1.98 1 3 C-0.375 4.5 -0.375 4.5 -2 6 C-2.66 6 -3.32 6 -4 6 C-4.33 4.35 -4.66 2.7 -5 1 C-4.67 1.66 -4.34 2.32 -4 3 C-3.01 2.67 -2.02 2.34 -1 2 C-0.67 1.34 -0.34 0.68 0 0 Z " fill="#E6242C" transform="translate(114,65)"/>
</svg>
